<mxfile host="Electron" agent="Mozilla/5.0 (Windows NT 10.0; Win64; x64) AppleWebKit/537.36 (KHTML, like Gecko) draw.io/26.0.16 Chrome/132.0.6834.196 Electron/34.2.0 Safari/537.36" version="26.0.16">
  <diagram id="C5RBs43oDa-KdzZeNtuy" name="Page-1">
    <mxGraphModel dx="494" dy="1470" grid="1" gridSize="10" guides="1" tooltips="1" connect="1" arrows="1" fold="1" page="1" pageScale="1" pageWidth="827" pageHeight="1169" math="0" shadow="0">
      <root>
        <mxCell id="WIyWlLk6GJQsqaUBKTNV-0" />
        <mxCell id="WIyWlLk6GJQsqaUBKTNV-1" parent="WIyWlLk6GJQsqaUBKTNV-0" />
        <mxCell id="oxyyzkmv6Ud4NhlOlB5s-8" style="edgeStyle=orthogonalEdgeStyle;rounded=0;orthogonalLoop=1;jettySize=auto;html=1;exitX=0;exitY=0.5;exitDx=0;exitDy=0;" edge="1" parent="WIyWlLk6GJQsqaUBKTNV-1" source="oxyyzkmv6Ud4NhlOlB5s-0" target="oxyyzkmv6Ud4NhlOlB5s-2">
          <mxGeometry relative="1" as="geometry" />
        </mxCell>
        <mxCell id="oxyyzkmv6Ud4NhlOlB5s-9" style="edgeStyle=orthogonalEdgeStyle;rounded=0;orthogonalLoop=1;jettySize=auto;html=1;exitX=0.5;exitY=1;exitDx=0;exitDy=0;entryX=1;entryY=0.5;entryDx=0;entryDy=0;" edge="1" parent="WIyWlLk6GJQsqaUBKTNV-1" source="oxyyzkmv6Ud4NhlOlB5s-0" target="oxyyzkmv6Ud4NhlOlB5s-4">
          <mxGeometry relative="1" as="geometry" />
        </mxCell>
        <mxCell id="oxyyzkmv6Ud4NhlOlB5s-0" value="Keypad" style="rounded=0;whiteSpace=wrap;html=1;" vertex="1" parent="WIyWlLk6GJQsqaUBKTNV-1">
          <mxGeometry x="590" y="-320" width="86" height="40" as="geometry" />
        </mxCell>
        <mxCell id="oxyyzkmv6Ud4NhlOlB5s-10" style="edgeStyle=orthogonalEdgeStyle;rounded=0;orthogonalLoop=1;jettySize=auto;html=1;exitX=0.5;exitY=1;exitDx=0;exitDy=0;entryX=0.5;entryY=0;entryDx=0;entryDy=0;" edge="1" parent="WIyWlLk6GJQsqaUBKTNV-1" source="oxyyzkmv6Ud4NhlOlB5s-2" target="oxyyzkmv6Ud4NhlOlB5s-4">
          <mxGeometry relative="1" as="geometry" />
        </mxCell>
        <mxCell id="oxyyzkmv6Ud4NhlOlB5s-11" style="edgeStyle=orthogonalEdgeStyle;rounded=0;orthogonalLoop=1;jettySize=auto;html=1;exitX=0;exitY=0.5;exitDx=0;exitDy=0;entryX=0;entryY=0.5;entryDx=0;entryDy=0;" edge="1" parent="WIyWlLk6GJQsqaUBKTNV-1" source="oxyyzkmv6Ud4NhlOlB5s-2" target="oxyyzkmv6Ud4NhlOlB5s-5">
          <mxGeometry relative="1" as="geometry" />
        </mxCell>
        <mxCell id="oxyyzkmv6Ud4NhlOlB5s-12" style="edgeStyle=orthogonalEdgeStyle;rounded=0;orthogonalLoop=1;jettySize=auto;html=1;entryX=1;entryY=0.5;entryDx=0;entryDy=0;" edge="1" parent="WIyWlLk6GJQsqaUBKTNV-1" source="oxyyzkmv6Ud4NhlOlB5s-2" target="oxyyzkmv6Ud4NhlOlB5s-6">
          <mxGeometry relative="1" as="geometry" />
        </mxCell>
        <mxCell id="oxyyzkmv6Ud4NhlOlB5s-2" value="Lock" style="rounded=0;whiteSpace=wrap;html=1;" vertex="1" parent="WIyWlLk6GJQsqaUBKTNV-1">
          <mxGeometry x="470" y="-320" width="86" height="40" as="geometry" />
        </mxCell>
        <mxCell id="oxyyzkmv6Ud4NhlOlB5s-3" value="RGB LED" style="rounded=0;whiteSpace=wrap;html=1;" vertex="1" parent="WIyWlLk6GJQsqaUBKTNV-1">
          <mxGeometry x="590" y="-200" width="86" height="40" as="geometry" />
        </mxCell>
        <mxCell id="oxyyzkmv6Ud4NhlOlB5s-14" style="edgeStyle=orthogonalEdgeStyle;rounded=0;orthogonalLoop=1;jettySize=auto;html=1;exitX=0.5;exitY=1;exitDx=0;exitDy=0;entryX=0.5;entryY=0;entryDx=0;entryDy=0;" edge="1" parent="WIyWlLk6GJQsqaUBKTNV-1" source="oxyyzkmv6Ud4NhlOlB5s-4" target="oxyyzkmv6Ud4NhlOlB5s-5">
          <mxGeometry relative="1" as="geometry" />
        </mxCell>
        <mxCell id="oxyyzkmv6Ud4NhlOlB5s-4" value="Switch" style="rounded=0;whiteSpace=wrap;html=1;" vertex="1" parent="WIyWlLk6GJQsqaUBKTNV-1">
          <mxGeometry x="470" y="-260" width="86" height="40" as="geometry" />
        </mxCell>
        <mxCell id="oxyyzkmv6Ud4NhlOlB5s-15" style="edgeStyle=orthogonalEdgeStyle;rounded=0;orthogonalLoop=1;jettySize=auto;html=1;exitX=1;exitY=0.5;exitDx=0;exitDy=0;entryX=0;entryY=0.5;entryDx=0;entryDy=0;" edge="1" parent="WIyWlLk6GJQsqaUBKTNV-1" source="oxyyzkmv6Ud4NhlOlB5s-5" target="oxyyzkmv6Ud4NhlOlB5s-3">
          <mxGeometry relative="1" as="geometry" />
        </mxCell>
        <mxCell id="oxyyzkmv6Ud4NhlOlB5s-16" style="edgeStyle=orthogonalEdgeStyle;rounded=0;orthogonalLoop=1;jettySize=auto;html=1;entryX=0;entryY=0.5;entryDx=0;entryDy=0;" edge="1" parent="WIyWlLk6GJQsqaUBKTNV-1" source="oxyyzkmv6Ud4NhlOlB5s-5" target="oxyyzkmv6Ud4NhlOlB5s-7">
          <mxGeometry relative="1" as="geometry">
            <Array as="points">
              <mxPoint x="570" y="-180" />
              <mxPoint x="570" y="-120" />
            </Array>
          </mxGeometry>
        </mxCell>
        <mxCell id="oxyyzkmv6Ud4NhlOlB5s-5" value="I2C" style="rounded=0;whiteSpace=wrap;html=1;" vertex="1" parent="WIyWlLk6GJQsqaUBKTNV-1">
          <mxGeometry x="470" y="-200" width="86" height="40" as="geometry" />
        </mxCell>
        <mxCell id="oxyyzkmv6Ud4NhlOlB5s-6" value="LED Bar" style="rounded=0;whiteSpace=wrap;html=1;" vertex="1" parent="WIyWlLk6GJQsqaUBKTNV-1">
          <mxGeometry x="330" y="-320" width="86" height="40" as="geometry" />
        </mxCell>
        <mxCell id="oxyyzkmv6Ud4NhlOlB5s-7" value="LCD" style="rounded=0;whiteSpace=wrap;html=1;" vertex="1" parent="WIyWlLk6GJQsqaUBKTNV-1">
          <mxGeometry x="590" y="-140" width="86" height="40" as="geometry" />
        </mxCell>
      </root>
    </mxGraphModel>
  </diagram>
</mxfile>
